<svg width="512" height="512" viewBox="0 0 512 512" role="img" xmlns="http://www.w3.org/2000/svg">
  <!-- Fundo Sólido (previne borda branca no iOS) -->
  <rect width="512" height="512" fill="#2a0e19"/>

  <!-- Envelope -->
  <rect x="76" y="136" width="360" height="240" rx="20" fill="#381322" stroke="#e8a0a8" stroke-width="12" stroke-linecap="round" stroke-linejoin="round"/>
  
  <!-- Linhas do Envelope -->
  <path d="M76 136 L256 260 L436 136" fill="none" stroke="#e8a0a8" stroke-width="10" stroke-linecap="round" stroke-linejoin="round"/>
  <path d="M76 376 L180 286" fill="none" stroke="#e8a0a8" stroke-width="10" stroke-linecap="round"/>
  <path d="M436 376 L332 286" fill="none" stroke="#e8a0a8" stroke-width="10" stroke-linecap="round"/>

  <!-- Lacre (Círculo central) -->
  <circle cx="256" cy="256" r="60" fill="#1a0910" stroke="#e8a0a8" stroke-width="8"/>

  <!-- Coração centralizado no Lacre -->
  <path d="
    M 256 297 
    C 230 277, 216 257, 216 243
    C 216 227, 228 215, 244 215
    C 252 215, 256 219, 256 225
    C 256 219, 260 215, 268 215
    C 284 215, 296 227, 296 243
    C 296 257, 282 277, 256 297 Z" 
  fill="#e8a0a8"/>
</svg>